<?xml version="1.0" encoding="iso-8859-1"?>
<!-- Generator: Adobe Illustrator 19.0.0, SVG Export Plug-In . SVG Version: 6.00 Build 0)  -->
<svg version="1.1" id="Capa_1" xmlns="http://www.w3.org/2000/svg" xmlns:xlink="http://www.w3.org/1999/xlink" x="0px" y="0px"
	 viewBox="0 0 512 512" style="enable-background:new 0 0 512 512;" xml:space="preserve">
<g>
	<g>
		<path d="M281.6,349.867h-51.2c-4.71,0-8.533,3.823-8.533,8.533s3.823,8.533,8.533,8.533h51.2c4.71,0,8.533-3.823,8.533-8.533
			S286.31,349.867,281.6,349.867z"/>
	</g>
</g>
<g>
	<g>
		<path d="M477.858,8.533H34.142C15.317,8.533,0,23.851,0,42.675v281.591v42.658c0,18.825,15.317,34.142,34.142,34.142H204.39
			c-2.031,33.843-16.111,51.2-42.257,51.2h-17.067c-14.114,0-25.6,11.486-25.6,25.6s11.486,25.6,25.6,25.6h221.867
			c14.114,0,25.6-11.486,25.6-25.6s-11.486-25.6-25.6-25.6h-17.067c-26.146,0-40.226-17.357-42.257-51.2h170.249
			c18.825,0,34.142-15.317,34.142-34.142v-42.658V42.675C512,23.851,496.683,8.533,477.858,8.533z M34.133,51.2
			c0-4.71,3.823-8.533,8.533-8.533H256h213.333c4.71,0,8.533,3.823,8.533,8.533v264.533H460.8v-256H264.533v256h-17.067v-256H51.2
			v256H34.133V51.2z M315.733,264.533h-25.6c-4.71,0-8.533-3.823-8.533-8.533s3.823-8.533,8.533-8.533h25.6
			c4.71,0,8.533,3.823,8.533,8.533S320.444,264.533,315.733,264.533z M324.267,290.133c0,4.71-3.823,8.533-8.533,8.533h-25.6
			c-4.71,0-8.533-3.823-8.533-8.533s3.823-8.533,8.533-8.533h25.6C320.444,281.6,324.267,285.423,324.267,290.133z M290.133,230.4
			c-4.71,0-8.533-3.823-8.533-8.533c0-4.71,3.823-8.533,8.533-8.533h85.333c4.71,0,8.533,3.823,8.533,8.533
			c0,4.71-3.823,8.533-8.533,8.533H290.133z M290.133,110.933h25.6c4.71,0,8.533,3.823,8.533,8.533S320.444,128,315.733,128h-25.6
			c-4.71,0-8.533-3.823-8.533-8.533S285.423,110.933,290.133,110.933z M281.6,85.333c0-4.71,3.823-8.533,8.533-8.533h85.333
			c4.71,0,8.533,3.823,8.533,8.533s-3.823,8.533-8.533,8.533h-85.333C285.423,93.867,281.6,90.044,281.6,85.333z M290.133,145.067
			h85.333c4.71,0,8.533,3.823,8.533,8.533c0,4.71-3.823,8.533-8.533,8.533h-85.333c-4.71,0-8.533-3.823-8.533-8.533
			C281.6,148.89,285.423,145.067,290.133,145.067z M290.133,179.2h25.6c4.71,0,8.533,3.823,8.533,8.533s-3.823,8.533-8.533,8.533
			h-25.6c-4.71,0-8.533-3.823-8.533-8.533S285.423,179.2,290.133,179.2z M435.2,264.533h-85.333c-4.71,0-8.533-3.823-8.533-8.533
			s3.823-8.533,8.533-8.533H435.2c4.71,0,8.533,3.823,8.533,8.533S439.91,264.533,435.2,264.533z M443.733,290.133
			c0,4.71-3.823,8.533-8.533,8.533h-85.333c-4.71,0-8.533-3.823-8.533-8.533s3.823-8.533,8.533-8.533H435.2
			C439.91,281.6,443.733,285.423,443.733,290.133z M435.2,230.4h-25.6c-4.71,0-8.533-3.823-8.533-8.533
			c0-4.71,3.823-8.533,8.533-8.533h25.6c4.71,0,8.533,3.823,8.533,8.533C443.733,226.577,439.91,230.4,435.2,230.4z M435.2,196.267
			h-85.333c-4.71,0-8.533-3.823-8.533-8.533s3.823-8.533,8.533-8.533H435.2c4.71,0,8.533,3.823,8.533,8.533
			S439.91,196.267,435.2,196.267z M435.2,162.133h-25.6c-4.71,0-8.533-3.823-8.533-8.533c0-4.71,3.823-8.533,8.533-8.533h25.6
			c4.71,0,8.533,3.823,8.533,8.533C443.733,158.31,439.91,162.133,435.2,162.133z M435.2,128h-85.333
			c-4.71,0-8.533-3.823-8.533-8.533s3.823-8.533,8.533-8.533H435.2c4.71,0,8.533,3.823,8.533,8.533S439.91,128,435.2,128z
			 M435.2,93.867h-25.6c-4.71,0-8.533-3.823-8.533-8.533S404.89,76.8,409.6,76.8h25.6c4.71,0,8.533,3.823,8.533,8.533
			S439.91,93.867,435.2,93.867z M190.234,244.966c-3.337-3.337-3.337-8.73,0-12.066c3.328-3.337,8.738-3.337,12.066,0l25.6,25.6
			c3.337,3.336,3.337,8.73,0,12.066l-25.6,25.6c-1.664,1.664-3.849,2.5-6.033,2.5c-2.185,0-4.369-0.836-6.033-2.5
			c-3.337-3.337-3.337-8.73,0-12.066l19.567-19.567L190.234,244.966z M153.6,170.667c4.71,0,8.533,3.823,8.533,8.533v17.067
			c0,4.71-3.823,8.533-8.533,8.533s-8.533-3.823-8.533-8.533V179.2C145.067,174.49,148.89,170.667,153.6,170.667z M145.067,145.067
			V85.333c0-4.71,3.823-8.533,8.533-8.533s8.533,3.823,8.533,8.533v59.733c0,4.71-3.823,8.533-8.533,8.533
			S145.067,149.777,145.067,145.067z M154.496,235.119c2.116-4.216,7.245-5.922,11.452-3.814c4.215,2.108,5.922,7.236,3.814,11.452
			l-25.6,51.2c-1.493,2.995-4.506,4.719-7.637,4.719c-1.28,0-2.586-0.29-3.814-0.896c-4.215-2.108-5.922-7.236-3.814-11.452
			L154.496,235.119z M108.433,284.1c3.337,3.336,3.337,8.73,0,12.066c-1.664,1.664-3.849,2.5-6.033,2.5
			c-2.185,0-4.369-0.836-6.033-2.5l-25.6-25.6c-3.337-3.337-3.337-8.73,0-12.066l25.6-25.6c3.328-3.337,8.738-3.337,12.066,0
			c3.336,3.337,3.336,8.73,0,12.066l-19.567,19.567L108.433,284.1z M349.867,469.333h17.067c4.71,0,8.533,3.831,8.533,8.533
			s-3.823,8.533-8.533,8.533H145.067c-4.702,0-8.533-3.831-8.533-8.533s3.831-8.533,8.533-8.533h17.067H349.867z M494.933,366.925
			c0,9.421-7.654,17.075-17.075,17.075H298.667h-85.333H34.142c-9.412,0-17.075-7.654-17.075-17.075V332.8h25.6h426.667h25.6
			V366.925z"/>
	</g>
</g>
<g>
</g>
<g>
</g>
<g>
</g>
<g>
</g>
<g>
</g>
<g>
</g>
<g>
</g>
<g>
</g>
<g>
</g>
<g>
</g>
<g>
</g>
<g>
</g>
<g>
</g>
<g>
</g>
<g>
</g>
</svg>
